# AST/ASF file generated using VICON BodyLanguage
# -----------------------------------------------
:version 1.10
:name VICON
:units
  mass 1.0
  length 0.45
  angle deg
:documentation
   .ast/.asf automatically generated from VICON data using
   VICON BodyBuilder and BodyLanguage model FoxedUp or BRILLIANT.MOD
:root
   order TX TY TZ RX RY RZ
   axis XYZ
   position 0 0 0  
   orientation 0 0 0 
:bonedata
  begin
     id 1 
     name lhipjoint
     direction 0.627457 -0.725269 0.283342 
     length 2.53237 
     axis 0 0 0  XYZ
  end
  begin
     id 2 
     name lfemur
     direction 0.34202 -0.939693 0  
     length 7.32496  
     axis 0 0 20  XYZ
    dof rx ry rz
    limits (-160.0 20.0)
           (-70.0 70.0)
           (-60.0 70.0)
  end
  begin
     id 3 
     name ltibia
     direction 0.34202 -0.939693 0   
     length 7.69674   
     axis 0 0 20   XYZ
    dof rx
    limits (-10.0 170.0)
  end
  begin
     id 4 
     name lfoot
     direction 0.127289 -0.349722 0.928166   
     length 1.8612   
     axis -90 7.62852e-016 20   XYZ
    dof rx rz
    limits (-45.0 90.0)
           (-70.0 20.0)
  end
  begin
     id 5 
     name ltoes
     direction 1.53561e-011 -4.21864e-011 1   
     length 0.925608   
     axis -90 7.62852e-016 20   XYZ
    dof rx
    limits (-90.0 20.0)
  end
  begin
     id 6 
     name rhipjoint
     direction -0.609094 -0.738725 0.288599   
     length 2.48624  
     axis 0 0 0  XYZ 
  end
  begin
     id 7 
     name rfemur
     direction -0.34202 -0.939693 0   
     length 7.44259   
     axis 0 0 -20   XYZ
    dof rx ry rz
    limits (-160.0 20.0)
           (-70.0 70.0)
           (-70.0 60.0)
  end
  begin
     id 8 
     name rtibia
     direction -0.34202 -0.939693 0   
     length 7.7781   
     axis 0 0 -20   XYZ
    dof rx
    limits (-10.0 170.0)
 end
 begin
     id 9 
     name rfoot
     direction -0.107015 -0.294021 0.949789   
     length 2.14741  
     axis -90 -7.62852e-016 -20   XYZ
    dof rx rz
    limits (-45.0 90.0)
           (-20.0 70.0)
  end
  begin
     id 10 
     name rtoes
     direction -1.53497e-011 -4.21924e-011 1   
     length 1.0706   
     axis -90 -7.62852e-016 -20   XYZ
    dof rx
    limits (-90.0 20.0)
  end
  begin
     id 11 
     name lowerback
     direction -0.0142066 0.998112 -0.0597545   
     length 1.86627   
     axis 0 0 0   XYZ
    dof rx ry rz
    limits (-20.0 45.0)
           (-30.0 30.0)
           (-30.0 30.0)
  end
  begin
     id 12 
     name upperback
     direction 0.00547294 0.999744 0.0219437   
     length 1.86272   
     axis 0 0 0   XYZ
    dof rx ry rz
    limits (-20.0 45.0)
           (-30.0 30.0)
           (-30.0 30.0)
  end
  begin
     id 13 
     name thorax
     direction 0.0116162 0.998704 0.0495538   
     length 1.8703   
     axis 0 0 0   XYZ
    dof rx ry rz
    limits (-20.0 45.0)
           (-30.0 30.0)
           (-30.0 30.0)
  end
  begin
     id 14 
     name lowerneck
     direction -0.0106574 0.998739 0.0490586   
     length 1.8074   
     axis 0 0 0   XYZ
    dof rx ry rz
    limits (-20.0 45.0)
           (-30.0 30.0)
           (-30.0 30.0)
  end
  begin
     id 15 
     name upperneck
     direction 0.030527 0.976587 -0.212944   
     length 1.80681   
     axis 0 0 0   XYZ
    dof rx ry rz
    limits (-20.0 45.0)
           (-30.0 30.0)
           (-30.0 30.0)
  end
  begin
     id 16
     name head
     direction 0.00869225 0.997035 -0.0764531  
     length 1.8313  
     axis 0 0 0   XYZ
    dof rx ry rz
    limits (-20.0 45.0)
           (-30.0 30.0)
           (-30.0 30.0)
  end
  begin
     id 17 
     name lclavicle
     direction 0.915958 0.399447 0.0382386  
     length 3.78965  
     axis 0 0 0   XYZ
    dof ry rz
    limits (-20.0 10.0)
           (0.0 20.0)
  end
  begin
     id 18 
     name lhumerus
     direction 1 -4.48967e-011 3.19303e-027   
     length 4.78095   
     axis -180 -30 -90   XYZ
    dof rx ry rz
    limits (-60.0 90.0)
           (-90.0 90.0)
           (-90.0 90.0)
  end
  begin
     id 19
     name lradius
     direction 1 -4.48967e-011 -3.77974e-027   
     length 3.58615   
     axis -180 -30 -90   XYZ
    dof rx
    limits (-10.0 170.0)
  end
  begin
     id 20
     name lwrist
     direction 1 -4.48927e-011 1.2807e-027   
     length 1.79307   
     axis 1.91374e-015 90 90   XYZ
    dof ry
    limits (-180.0 0.0)
 end
  begin
     id 21 
     name lhand
     direction 1 -4.49036e-011 2.5614e-027   
     length 0.659812   
     axis -1.63439e-015 90 90   XYZ
    dof rx rz
    limits (-90.0 90.0)
           (-45.0 45.0)
  end
  begin
     id 22 
     name lfingers
     direction 1 -4.49052e-011 5.1228e-027   
     length 0.531957   
     axis -3.26879e-015 90 90   XYZ
    dof rx
    limits (0.0 90.0)
  end
  begin
     id 23
     name lthumb
     direction 0.707107 -6.35012e-011 0.707107   
     length 0.763787   
     axis -90 45 2.85299e-015   XYZ
    dof rx rz
    limits (-45.0 45.0)
           (-45.0 45.0)
  end
  begin
     id 24 
     name rclavicle
     direction -0.895351 0.435135 0.0948887   
     length 3.70497  
     axis 0 0 0   XYZ 
    dof ry rz
    limits (-10.0 20.0)
           (-20.0 0.0)
  end
  begin
     id 25 
     name rhumerus
     direction -1 -4.48971e-011 2.38946e-027  
     length 4.48913   
     axis -180 30 90   XYZ
    dof rx ry rz
    limits (-90.0 60.0)
           (-90.0 90.0)
           (-90.0 90.0)
  end
  begin
     id 26 
     name rradius
     direction -1 -4.4895e-011 4.38668e-027   
     length 3.7051   
     axis -180 30 90   XYZ
    dof rx
    limits (-10.0 170.0)
  end
  begin
     id 27 
     name rwrist
     direction -1 -4.49007e-011 1.2807e-027   
     length 1.85255   
     axis 1.91374e-015 -90 -90   XYZ
    dof ry
    limits (-180.0 0.0)
  end
  begin
     id 28
     name rhand
     direction -1 -4.48851e-011 2.5614e-027   
     length 0.449136   
     axis -1.63439e-015 -90 -90   XYZ
    dof rx rz
    limits (-90.0 90.0)
           (-45.0 45.0)
  end
  begin
     id 29
     name rfingers
     direction -1 -4.49128e-011 5.1228e-027   
     length 0.362105   
     axis -3.26879e-015 -90 -90   XYZ
    dof rx
    limits (0.0 90.0)
  end
  begin
     id 30
     name rthumb
     direction -0.707107 -6.34851e-011 0.707107   
     length 0.519912   
     axis -90 -45 -2.85299e-015   XYZ
    dof rx rz
    limits (-45.0 45.0)
           (-45.0 45.0)
  end
:hierarchy
  begin
    root lhipjoint rhipjoint lowerback
    lhipjoint lfemur
    lfemur ltibia
    ltibia lfoot
    lfoot ltoes
    rhipjoint rfemur
    rfemur rtibia
    rtibia rfoot
    rfoot rtoes
    lowerback upperback
    upperback thorax
    thorax lowerneck lclavicle rclavicle
    lowerneck upperneck
    upperneck head
    lclavicle lhumerus
    lhumerus lradius
    lradius lwrist
    lwrist lhand lthumb
    lhand lfingers
    rclavicle rhumerus
    rhumerus rradius
    rradius rwrist
    rwrist rhand rthumb
    rhand rfingers
  end

#!OML:ASF I:\Actors\actors\Patient Classification 2\Patient 1\Session 1\actor1.ASF
:FULLY-SPECIFIED
:DEGREES
1
root -0.472525 18.6775 5.86371 3.08357 -3.89985 -2.2689
lowerback 1.65221 0.791794 0.507379
upperback -3.69988 1.10424 0.619363
thorax -4.74463 0.542442 0.291845
lowerneck -9.84076 -1.67498 -1.27972
upperneck 24.726 -2.70705 2.30878
head 9.44997 -1.13922 0.716179
rclavicle 7.95139e-015 5.36719e-015
rhumerus -50.7648 -4.49214 -84.9899
rradius 43.3084
rwrist 10.6957
rhand -6.04678 -35.7402
rfingers 7.12502
rthumb 19.7874 -64.753
lclavicle 7.95139e-015 5.36719e-015
lhumerus -43.8301 1.59597 90.4208
lradius 37.0173
lwrist -8.34122
lhand -6.27074 -24.6334
lfingers 7.12502
lthumb 19.5721 4.40145
rfemur 0 0 0
rtibia 0
rfoot 0 0
rtoes 0
lfemur -4.68817 -3.2643 -12.6277
ltibia 22.426
lfoot -25.731 16.5922
ltoes -54.5849
2
root -0.470409 18.6773 5.85868 3.03124 -3.96441 -2.26914
lowerback 1.78158 0.78918 0.484671
upperback -3.7057 1.10149 0.627541
thorax -4.82502 0.541861 0.311213
lowerneck -9.81406 -1.67223 -1.28341
upperneck 24.7256 -2.70592 2.32034
head 9.44494 -1.13817 0.721115
rclavicle -3.21161e-015 3.47873e-015
rhumerus -50.7823 -4.55526 -84.9332
rradius 43.5378
rwrist 10.7439
rhand -5.6419 -35.4132
rfingers 7.12502
rthumb 20.1766 -64.3854
lclavicle -3.21161e-015 3.47873e-015
lhumerus -43.911 1.56749 90.4635
lradius 37.2247
lwrist -8.48871
lhand -6.13812 -24.0716
lfingers 7.12502
lthumb 19.6996 4.95021
rfemur 0 0 0
rtibia 0
rfoot 0 0
rtoes 0
lfemur -4.67368 -3.08201 -12.6273
ltibia 22.4897
lfoot -25.6324 16.5709
ltoes -54.7282
3
root -0.468709 18.676 5.85373 2.97603 -4.00152 -2.29827
lowerback 1.90475 0.776018 0.488037
upperback -3.70654 1.08594 0.643607
thorax -4.89636 0.534146 0.325062
lowerneck -9.77345 -1.65343 -1.24918
upperneck 24.7082 -2.68123 2.29993
head 9.42976 -1.12631 0.711261
rclavicle -4.66523e-015 -3.27995e-015
rhumerus -50.8479 -4.56998 -84.952
rradius 43.6792
rwrist 10.9135
rhand -5.58242 -35.2808
rfingers 7.12502
rthumb 20.2337 -64.247
lclavicle -4.66523e-015 -3.27995e-015
lhumerus -43.9901 1.5402 90.4822
lradius 37.3081
lwrist -8.41438
lhand -6.19477 -24.0397
lfingers 7.12502
lthumb 19.6451 4.9877
rfemur 0 0 0
rtibia 0
rfoot 0 0
rtoes 0
lfemur -4.64514 -3.01722 -12.5995
ltibia 22.5409
lfoot -25.61 16.5711
ltoes -54.7288
4
root -0.467432 18.6741 5.84872 2.91688 -4.02163 -2.32058
lowerback 2.02819 0.769112 0.502622
upperback -3.70052 1.07892 0.652308
thorax -4.96037 0.530112 0.324597
lowerneck -9.76763 -1.6601 -1.26397
upperneck 24.7219 -2.69793 2.33769
head 9.43462 -1.13145 0.725013
rclavicle 3.05631e-015 4.07509e-015
rhumerus -50.8893 -4.56195 -84.9706
rradius 43.7386
rwrist 10.8672
rhand -5.45447 -35.4142
rfingers 7.12502
rthumb 20.3567 -64.3672
lclavicle 3.05631e-015 4.07509e-015
lhumerus -44.0052 1.52421 90.482
lradius 37.313
lwrist -8.41879
lhand -6.19637 -24.0991
lfingers 7.12502
lthumb 19.6436 4.92844
rfemur 0 0 0
rtibia 0
rfoot 0 0
rtoes 0
lfemur -4.61717 -2.94603 -12.5686
ltibia 22.5881
lfoot -25.6279 16.4663
ltoes -54.6778
5
root -0.466814 18.6726 5.84401 2.83932 -4.05739 -2.32402
lowerback 2.14189 0.76847 0.487647
upperback -3.6746 1.0785 0.657068
thorax -4.99852 0.530461 0.336488
lowerneck -9.75286 -1.67149 -1.31543
upperneck 24.7029 -2.72494 2.42261
head 9.42766 -1.14001 0.76016
rclavicle -1.46355e-014 5.66536e-015
rhumerus -50.8859 -4.51898 -85.0276
rradius 43.7635
rwrist 10.7114
rhand -5.96218 -35.5651
rfingers 7.12502
rthumb 19.8687 -64.5695
lclavicle -1.46355e-014 5.66536e-015
lhumerus -43.9708 1.56379 90.448
lradius 37.292
lwrist -8.53
lhand -6.12189 -24.1111
lfingers 7.12502
lthumb 19.7152 4.90911
rfemur 0 0 0
rtibia 0
rfoot 0 0
rtoes 0
lfemur -4.56585 -2.82288 -12.5579
ltibia 22.6233
lfoot -25.5628 16.4099
ltoes -54.7401
6
root -0.466995 18.6718 5.83946 2.75756 -4.09747 -2.31188
lowerback 2.2445 0.76963 0.430414
upperback -3.64217 1.0783 0.661758
thorax -5.0243 0.532564 0.372162
lowerneck -9.71098 -1.67212 -1.32429
upperneck 24.6387 -2.732 2.45971
head 9.39793 -1.14104 0.773894
rclavicle 1.91827e-014 -6.55989e-015
rhumerus -50.8965 -4.53139 -85.0513
rradius 43.7965
rwrist 10.6951
rhand -6.9375 -35.5869
rfingers 7.12502
rthumb 18.9309 -64.6857
lclavicle 1.91827e-014 -6.55989e-015
lhumerus -43.9482 1.55544 90.4473
lradius 37.2976
lwrist -8.57017
lhand -6.12608 -24.0003
lfingers 7.12502
lthumb 19.7111 5.02029
rfemur 0 0 0
rtibia 0
rfoot 0 0
rtoes 0
lfemur -4.50535 -2.71683 -12.5686
ltibia 22.6458
lfoot -25.4602 16.4412
ltoes -54.8343
7
root -0.466534 18.6714 5.83537 2.71014 -4.09593 -2.2773
lowerback 2.3194 0.764523 0.377209
upperback -3.63029 1.06887 0.647353
thorax -5.05526 0.52954 0.386711
lowerneck -9.70379 -1.69643 -1.29049
upperneck 24.6156 -2.76312 2.42188
head 9.38807 -1.15685 0.751692
rclavicle -4.96962e-016 -8.94531e-015
rhumerus -50.9259 -4.57581 -85.0673
rradius 43.7889
rwrist 10.7736
rhand -7.03889 -35.529
rfingers 7.12502
rthumb 18.8334 -64.6372
lclavicle -4.96962e-016 -8.94531e-015
lhumerus -43.947 1.44362 90.488
lradius 37.2889
lwrist -8.4883
lhand -6.22984 -23.9784
lfingers 7.12502
lthumb 19.6114 5.05244
rfemur 0 0 0
rtibia 0
rfoot 0 0
rtoes 0
lfemur -4.49082 -2.63745 -12.599
ltibia 22.6693
lfoot -25.3791 16.4259
ltoes -54.8908
8
root -0.465491 18.6706 5.83153 2.67214 -4.08289 -2.25434
lowerback 2.39069 0.752973 0.354854
upperback -3.62826 1.05223 0.631714
thorax -5.09384 0.521723 0.383201
lowerneck -9.73051 -1.72933 -1.28593
upperneck 24.638 -2.80558 2.39929
head 9.40158 -1.1784 0.738253
rclavicle -1.28713e-014 -6.95746e-016
rhumerus -50.9396 -4.5959 -85.1076
rradius 43.7501
rwrist 10.8161
rhand -6.10904 -35.4708
rfingers 7.12502
rthumb 19.7275 -64.4897
lclavicle -1.28713e-014 -6.95746e-016
lhumerus -43.9404 1.34179 90.5079
lradius 37.2495
lwrist -8.42272
lhand -6.31352 -24.0745
lfingers 7.12502
lthumb 19.5309 4.96456
rfemur 0 0 0
rtibia 0
rfoot 0 0
rtoes 0
lfemur -4.4862 -2.59703 -12.616
ltibia 22.7023
lfoot -25.3674 16.3256
ltoes -54.8493
